#!OML:ASF H:\LiuWeirdWalks\Patient Classification 1\Patient 1\Session 1\male.ASF
:FULLY-SPECIFIED
:DEGREES
710
root 1.64797 17.9547 39.1033 1.65724 11.7765 4.09877
lowerback 5.85453 2.17667 -6.48354
upperback -1.12503 2.4501 0.703461
thorax -4.77122 1.40354 4.12715
lowerneck -25.9751 -1.44867 -1.06618
upperneck 12.3503 -1.2831 -1.50648
head 8.00229 -0.82483 -0.521242
rclavicle 3.59738e-014 -1.35174e-014
rhumerus -30.6123 -0.170136 -74.2274
rradius 42.1291
rwrist -16.3263
rhand -17.5094 2.17755
rfingers 7.12502
rthumb 8.74382 -27.6213
lclavicle 3.59738e-014 -1.35174e-014
lhumerus -35.3753 0.136669 86.9948
lradius 25.3124
lwrist 1.8062
lhand -13.3785 -4.46162
lfingers 7.12502
lthumb 12.7283 25.1304
rfemur -4.6648 -6.90397 14.9244
rtibia 31.8382
rfoot -15.0893 -21.9354
rtoes -5.35273
lfemur -23.6451 -3.09219 -19.8664
ltibia 17.7725
lfoot -6.28836 15.9385
ltoes -17.5261
711
root 1.66208 17.8825 39.1931 1.69809 11.7239 4.09874
lowerback 5.68928 2.05951 -7.09219
upperback -1.1977 2.26647 0.87337
thorax -4.76628 1.33442 4.67249
lowerneck -25.5899 -1.17051 -0.796708
upperneck 12.3925 -1.00561 -1.53066
head 7.95529 -0.682077 -0.531082
rclavicle -2.35808e-014 1.78906e-014
rhumerus -29.7896 -0.330511 -74.0019
rradius 40.7326
rwrist -16.133
rhand -17.9406 2.28336
rfingers 7.12502
rthumb 8.32763 -27.5325
lclavicle -2.35808e-014 1.78906e-014
lhumerus -35.349 2.08342 86.2874
lradius 24.4833
lwrist 0.785827
lhand -14.7336 -4.5583
lfingers 7.12502
lthumb 11.4217 25.1106
rfemur -4.03984 -6.51165 15.1154
rtibia 31.3532
rfoot -16.2621 -23.0064
rtoes -3.94424
lfemur -23.8828 -3.28899 -19.7909
ltibia 17.2544
lfoot -6.01494 15.8506
ltoes -17.4616
712
root 1.68086 17.8184 39.2833 1.79922 11.6093 3.96768
lowerback 5.37291 1.88676 -7.57398
upperback -1.25171 2.03441 1.08545
thorax -4.6404 1.23384 5.2008
lowerneck -25.3252 -0.828024 -0.477782
upperneck 12.5263 -0.655505 -1.54209
head 7.95933 -0.501604 -0.536625
rclavicle 7.82715e-015 3.45885e-014
rhumerus -28.8196 -0.536633 -73.8433
rradius 39.2121
rwrist -15.9164
rhand -18.3023 2.20289
rfingers 7.12502
rthumb 7.97853 -27.6265
lclavicle 7.82715e-015 3.45885e-014
lhumerus -35.3515 4.46965 85.3691
lradius 23.7609
lwrist -0.364394
lhand -15.8013 -4.50457
lfingers 7.12502
lthumb 10.3919 25.2186
rfemur -3.68603 -6.05449 15.4204
rtibia 31.1488
rfoot -17.1464 -23.9588
rtoes -2.92642
lfemur -24.1358 -3.56238 -19.5307
ltibia 16.7523
lfoot -5.75644 15.781
ltoes -17.4355
713
root 1.70255 17.7623 39.3712 1.91357 11.4836 3.65116
lowerback 5.0119 1.43792 -8.29824
upperback -1.37071 1.43347 1.56953
thorax -4.50854 0.962842 6.19239
lowerneck -24.7691 -0.0855704 0.253947
upperneck 12.5626 0.157011 -1.89437
head 7.88939 -0.115807 -0.659487
rclavicle -2.64011e-015 -1.11319e-014
rhumerus -27.6636 -0.0263818 -73.8823
rradius 37.5757
rwrist -15.6981
rhand -18.6136 1.90617
rfingers 7.12502
rthumb 7.67812 -27.9344
lclavicle -2.64011e-015 -1.11319e-014
lhumerus -35.7666 7.92193 84.1075
lradius 23.2254
lwrist -1.64141
lhand -16.6549 -4.33145
lfingers 7.12502
lthumb 9.5683 25.4313
rfemur -3.58864 -5.63563 15.8829
rtibia 31.2563
rfoot -17.7593 -24.7345
rtoes -2.31547
lfemur -24.3958 -3.90505 -19.0415
ltibia 16.302
lfoot -5.48289 15.6769
ltoes -17.4493
714
root 1.73071 17.714 39.4567 2.06763 11.2957 3.21192
lowerback 4.63324 1.11109 -8.53353
upperback -1.461 1.0265 1.91013
thorax -4.33271 0.768342 6.73239
lowerneck -24.5198 0.466938 0.833986
upperneck 12.7088 0.742254 -2.07184
head 7.90877 0.172659 -0.732987
rclavicle 1.84808e-015 3.97569e-015
rhumerus -26.5241 -0.2942 -73.8872
rradius 35.9025
rwrist -15.2537
rhand -18.8491 1.38796
rfingers 7.12502
rthumb 7.45081 -28.4608
lclavicle 1.84808e-015 3.97569e-015
lhumerus -36.0941 10.94 82.8459
lradius 22.7583
lwrist -2.77557
lhand -17.2943 -3.94295
lfingers 7.12502
lthumb 8.95138 25.8472
rfemur -3.76231 -5.29808 16.4009
rtibia 31.6614
rfoot -18.1905 -25.2258
rtoes -2.02848
lfemur -24.6969 -4.31648 -18.3877
ltibia 15.9444
lfoot -5.19975 15.5999
ltoes -17.4665
715
root 1.76414 17.6701 39.5397 2.17127 11.0767 2.71625
lowerback 4.3492 0.741107 -8.75576
upperback -1.57689 0.556197 2.30946
thorax -4.21789 0.545924 7.33034
lowerneck -24.1457 1.07392 1.4741
upperneck 12.7906 1.40315 -2.34223
head 7.89334 0.491864 -0.837745
rclavicle 1.87448e-014 8.74653e-015
rhumerus -25.3991 -0.650832 -73.9104
rradius 34.1875
rwrist -14.6222
rhand -19.0462 0.678544
rfingers 7.12502
rthumb 7.26058 -29.1769
lclavicle 1.87448e-014 8.74653e-015
lhumerus -36.6583 14.0681 81.5205
lradius 22.3989
lwrist -3.75675
lhand -17.7727 -3.3862
lfingers 7.12502
lthumb 8.4897 26.4231
rfemur -4.04051 -5.09607 16.8976
rtibia 32.2952
rfoot -18.5301 -25.4556
rtoes -1.99368
lfemur -24.9513 -4.76267 -17.6713
ltibia 15.72
lfoot -4.90924 15.4844
ltoes -17.5033
716
root 1.80192 17.628 39.6227 2.2168 10.841 2.27798
lowerback 4.22662 0.546926 -8.70976
upperback -1.68742 0.316084 2.53921
thorax -4.2204 0.433259 7.5711
lowerneck -23.9536 1.42886 1.89234
upperneck 12.8882 1.77114 -2.45951
head 7.90761 0.676419 -0.895234
rclavicle -4.53478e-016 -2.38542e-015
rhumerus -24.4565 -1.8379 -73.8163
rradius 32.4723
rwrist -13.7482
rhand -19.242 -0.171334
rfingers 7.12502
rthumb 7.07155 -30.0332
lclavicle -4.53478e-016 -2.38542e-015
lhumerus -37.1314 16.4565 80.3965
lradius 22.0142
lwrist -4.45347
lhand -18.1965 -2.73891
lfingers 7.12502
lthumb 8.08067 27.0866
rfemur -4.31386 -5.01177 17.2626
rtibia 33.0499
rfoot -18.8538 -25.4865
rtoes -2.10228
lfemur -25.1342 -5.17643 -17.0536
ltibia 15.6463
lfoot -4.60377 15.2631
ltoes -17.6056
717
root 1.84239 17.5861 39.7061 2.20802 10.6232 1.94254
lowerback 4.24562 0.563243 -8.38238
upperback -1.79826 0.353849 2.55932
thorax -4.35117 0.453876 7.40133
lowerneck -23.9047 1.46948 2.00913
upperneck 12.9785 1.77497 -2.37832
head 7.93031 0.693027 -0.88626
rclavicle 3.18783e-015 2.74323e-014
rhumerus -23.7764 -3.9417 -73.5465
rradius 30.7798
rwrist -12.6534
rhand -19.4741 -1.12907
rfingers 7.12502
rthumb 6.84753 -30.9983
lclavicle 3.18783e-015 2.74323e-014
lhumerus -37.4057 17.9029 79.5989
lradius 21.5386
lwrist -4.86999
lhand -18.5713 -1.99147
lfingers 7.12502
lthumb 7.71894 27.8476
rfemur -4.49869 -5.03669 17.4744
rtibia 33.8034
rfoot -19.1628 -25.4269
rtoes -2.3349
lfemur -25.2527 -5.53885 -16.6055
ltibia 15.7271
lfoot -4.25456 14.8825
ltoes -17.7927
718
root 1.88595 17.5445 39.7957 2.06016 10.4157 1.80092
lowerback 4.36282 0.593477 -8.28865
upperback -1.86279 0.388742 2.55946
thorax -4.4914 0.477695 7.3453
lowerneck -23.7753 1.48782 2.12247
upperneck 12.969 1.76637 -2.38573
head 7.90697 0.695052 -0.908405
rclavicle 8.27752e-016 -1.98785e-014
rhumerus -23.1643 -6.18598 -73.206
rradius 29.0598
rwrist -11.4
rhand -19.7721 -2.13422
rfingers 7.12502
rthumb 6.55982 -32.0126
lclavicle 8.27752e-016 -1.98785e-014
lhumerus -37.6742 19.0759 78.9879
lradius 21.0058
lwrist -5.07427
lhand -18.9469 -1.27835
lfingers 7.12502
lthumb 7.35644 28.5738
rfemur -4.38852 -5.12561 17.4397
rtibia 34.4463
rfoot -19.5011 -25.3423
rtoes -2.57575
lfemur -25.16 -5.83324 -16.4499
ltibia 15.9273
lfoot -3.83226 14.3481
ltoes -18.4895
719
root 1.93229 17.506 39.8924 1.82463 10.2329 1.83435
lowerback 4.48605 0.611965 -8.4402
upperback -1.88882 0.393167 2.56272
thorax -4.5926 0.490378 7.4366
lowerneck -23.5608 1.5135 2.24485
upperneck 12.9051 1.78182 -2.47798
head 7.85311 0.700708 -0.9575
rclavicle 2.72335e-014 1.90833e-014
rhumerus -22.6171 -8.4806 -72.7946
rradius 27.3343
rwrist -10.0281
rhand -20.1493 -3.10761
rfingers 7.12502
rthumb 6.19569 -32.997
lclavicle 2.72335e-014 1.90833e-014
lhumerus -37.9307 19.9984 78.5781
lradius 20.4145
lwrist -5.10841
lhand -19.2966 -0.616566
lfingers 7.12502
lthumb 7.01888 29.2471
rfemur -3.99834 -5.24051 17.1972
rtibia 34.894
rfoot -19.8466 -25.282
rtoes -2.75606
lfemur -24.918 -6.04877 -16.5645
ltibia 16.2285
lfoot -3.19129 13.6661
ltoes -19.6686
